<svg width="40" height="43" viewBox="0 0 40 43" fill="none" xmlns="http://www.w3.org/2000/svg">
<mask id="mask0_110_608" style="mask-type:luminance" maskUnits="userSpaceOnUse" x="0" y="0" width="40" height="31">
<path d="M0 0H39.1777V30.9178H0V0Z" fill="white"/>
</mask>
<g mask="url(#mask0_110_608)">
<path fill-rule="evenodd" clip-rule="evenodd" d="M3.67125 1.01035C2.51828 1.67227 1.60752 2.59133 0.973803 3.68126C0.340084 4.77948 0 6.03033 0 7.3608V20.0783C0 21.4005 0.340084 22.6497 0.973803 23.7479C1.60752 24.8378 2.51828 25.7585 3.67125 26.4271L10.3601 30.2941C11.3605 30.8747 12.6279 30.5363 13.2085 29.536C13.7892 28.5356 13.4491 27.2665 12.4487 26.6859L5.75987 22.8189H5.75157C5.24228 22.5252 4.84081 22.1321 4.58201 21.6759C4.32322 21.2213 4.17889 20.6755 4.17889 20.0783V7.3608C4.17889 6.76192 4.32322 6.21779 4.58201 5.77153V5.76158C4.84081 5.30702 5.24228 4.91385 5.75987 4.61856C6.26917 4.32493 6.80501 4.1806 7.34085 4.1806C7.87669 4.1806 8.42248 4.32493 8.92182 4.61856L21.1665 11.6923H21.1748L33.4278 18.7561C33.9371 19.0514 34.3303 19.4446 34.5974 19.9074C34.8562 20.3636 34.9988 20.8995 34.9988 21.5067C34.9988 22.069 34.8744 22.5866 34.6505 23.0163C34.6339 23.0428 34.6156 23.0694 34.6057 23.0959C34.3386 23.5604 33.9371 23.9636 33.4361 24.2489C32.4358 24.8196 32.0973 26.097 32.668 27.089C33.2403 28.0894 34.5177 28.4278 35.5081 27.8571C36.6694 27.1869 37.5884 26.2662 38.2139 25.1862C38.2404 25.1414 38.2686 25.0966 38.2852 25.0435C38.8758 23.9801 39.1877 22.7757 39.1877 21.4984C39.1877 20.1762 38.8492 18.9253 38.2139 17.8271V17.8188C37.5884 16.7372 36.6694 15.8181 35.5081 15.1479L23.2734 8.0841L11.0121 1.01035C9.85083 0.341793 8.59999 0.00170898 7.34085 0.00170898C6.09166 0.00170898 4.84081 0.341793 3.67125 1.01035Z" fill="white"/>
</g>
<mask id="mask1_110_608" style="mask-type:luminance" maskUnits="userSpaceOnUse" x="0" y="13" width="29" height="30">
<path d="M0 13.9303H28.7263V43H0V13.9303Z" fill="white"/>
</mask>
<g mask="url(#mask1_110_608)">
<path fill-rule="evenodd" clip-rule="evenodd" d="M0 32.5454V35.6443C0 36.9665 0.340084 38.2157 0.973803 39.3139C1.60752 40.4138 2.51828 41.3328 3.67125 41.9931C3.71604 42.0213 3.75918 42.0478 3.80397 42.0661C4.93039 42.6898 6.13479 43.0034 7.34085 43.0034C8.59169 43.0034 9.84254 42.6633 11.0021 41.9931L24.7382 34.0716C25.8995 33.403 26.8186 32.4823 27.444 31.4024V31.3924C28.0777 30.2942 28.4178 29.045 28.4178 27.7228C28.4178 26.4006 28.0777 25.1498 27.444 24.0516C26.8103 22.9633 25.8995 22.0426 24.7382 21.3724L12.6362 14.3898C12.3061 14.2024 11.9577 14.1128 11.601 14.1128C10.8777 14.1128 10.181 14.4877 9.79775 15.1579C9.22541 16.1566 9.5655 17.4257 10.5658 17.9964L22.6662 24.9806C23.1755 25.2759 23.577 25.669 23.8358 26.1236C24.0946 26.5798 24.2372 27.1239 24.2372 27.7228C24.2372 28.3217 24.0946 28.8658 23.8358 29.3121C23.5687 29.7766 23.1656 30.178 22.6662 30.465L8.93012 38.3865C8.42248 38.6802 7.88664 38.8228 7.34085 38.8228C6.83155 38.8228 6.32225 38.6984 5.84116 38.4396C5.81461 38.4214 5.78641 38.4031 5.75987 38.3865C5.24228 38.0829 4.84081 37.6898 4.58202 37.2435C4.32322 36.7873 4.17889 36.2432 4.17889 35.6443V32.5454C4.17889 31.3924 3.24159 30.4551 2.09027 30.4551C0.937306 30.4551 0 31.3841 0 32.5454Z" fill="white"/>
</g>
</svg>
